<svg xmlns="http://www.w3.org/2000/svg" viewBox="0 0 358 96"><path fill="#E50914" d="M276.6 87l15 1.2V.1h-15V87zM35 54.3L15.4.1H1.1v95.8c5-.7 10-1.4 15-2V41.8l17.4 50c5.5-.6 11-1.2 16.4-1.8V.1H35v54.2zm29.4 34.2c13.8-1.3 27.8-2.3 41.7-3.1V70.6c-8.9.5-17.8 1.1-26.7 1.8V50.1c5.8-.1 13.5-.2 20.3-.2V35.1c-5.4 0-14.2.1-20.3.2V15h26.7V.1H64.4v88.4zM115.8 15h15.7v69.2c5-.2 10-.3 15-.5V15h15.7V.1h-46.5V15zm56.1 68.4h15V49.2h20.4V34.4h-20.4V15h26.9V.1h-41.9v83.3zM357.9.1h-16.5l-10.9 25.2L320.7.1h-16.3l17.5 45.1-19.1 44.2c5.3.5 10.5 1.1 15.8 1.6l11.1-25.7 11 28.3c5.7.7 11.4 1.5 17.1 2.3l-19.6-50.5L357.9.1zM238.5.1h-15v84c13.7.5 27.2 1.2 40.8 2.1V71.4c-8.6-.6-17.2-1.1-25.8-1.5V.1z"></path></svg>